<svg width="611" height="594" viewBox="0 0 611 594" fill="none" xmlns="http://www.w3.org/2000/svg">
<path d="M338.412 18.6381C277.057 71.0395 148.303 158.505 -10.0009 200.918C-13.5212 201.861 -16 205.045 -16 208.689V267.925C-16 273.378 -10.673 277.233 -5.52158 275.443C101.327 238.317 297.876 144.668 349.99 26.2971C353.226 18.945 344.52 13.4211 338.412 18.6381Z" fill="#F2737A"/>
<path d="M338.412 575.362C277.057 522.96 148.303 435.495 -10.0009 393.082C-13.5212 392.139 -16 388.955 -16 385.311V326.075C-16 320.622 -10.673 316.767 -5.52158 318.557C101.327 355.683 297.876 449.332 349.99 567.703C353.226 575.055 344.52 580.579 338.412 575.362Z" fill="#F2737A"/>
<path d="M497.759 287.318C353.71 304.337 108.966 328.657 -9.58494 313.845C-11.4827 313.607 -13.1169 312.705 -14.3739 311.263C-37.9925 284.181 -68.0665 237.803 -12.4169 252.98C34.6261 265.81 301.339 270.952 496.839 272.466C506.782 272.543 507.633 286.151 497.759 287.318Z" fill="#F2737A"/>
<path d="M482.004 500.401C399.859 452.273 167.57 382.467 4.92961 340.043C1.40313 339.123 -1 335.955 -1 332.311V273.075C-1 267.622 4.30529 263.748 9.50666 265.387C123.155 301.199 427.679 374.88 494.033 490.806C498.023 497.778 488.935 504.462 482.004 500.401Z" fill="#F2737A"/>
<path d="M507.8 87.0783C421.795 135.165 171.674 205.552 -2.95149 248.178C-6.53726 249.053 -9 252.249 -9 255.94V315.146C-9 320.535 -3.85695 324.412 1.31065 322.883C122.103 287.144 449.661 213.233 519.403 96.7113C523.492 89.8803 514.749 83.1931 507.8 87.0783Z" fill="#F2737A"/>
</svg>
