<svg xmlns="http://www.w3.org/2000/svg" viewBox="0 0 425.21 133.45"><defs><style>.a{fill:#fa9a9c;}.b{fill:#6d6d6d;}</style></defs><title>plumbus-connect</title><path class="a" d="M46.38,17.47q6.51,5.85,6.51,16a26.45,26.45,0,0,1-2.25,10.87,18.9,18.9,0,0,1-7.3,8.31q-5.06,3.26-13.07,3.26H21.12v20.5H8.36V11.62H28Q39.86,11.62,46.38,17.47ZM36,41.84A9.55,9.55,0,0,0,39.16,38a10.61,10.61,0,0,0,1-4.23,12.28,12.28,0,0,0-2-6.64q-2-3.21-7.83-3.21H21.12V43.47h9.06A9.51,9.51,0,0,0,36,41.84Z" transform="translate(-8.36 -8.98)"/><path class="a" d="M77.09,11.62V64.06h30.44V76.38H64.33V11.62Z" transform="translate(-8.36 -8.98)"/><path class="a" d="M134,58.34A14.2,14.2,0,0,0,139,62.92a13.1,13.1,0,0,0,6.6,1.76,14.1,14.1,0,0,0,6.95-1.76,13.58,13.58,0,0,0,5-4.58,10.69,10.69,0,0,0,1.81-5.89V11.62h12.58V52.71a23,23,0,0,1-3.52,12.54A24.12,24.12,0,0,1,158.79,74a29.48,29.48,0,0,1-26.44,0,23.94,23.94,0,0,1-9.46-8.71,23.21,23.21,0,0,1-3.48-12.54V11.62h12.76V52.45A10.58,10.58,0,0,0,134,58.34Z" transform="translate(-8.36 -8.98)"/><path class="a" d="M254,9v67.4H241.21V45.5l-21.12,30h-.18L199.58,47.43V76.38H187.26V9h.09l32.82,46.55L253.79,9Z" transform="translate(-8.36 -8.98)"/><path class="a" d="M312,48.44a14.38,14.38,0,0,1,2.86,8.85q0,9.85-6.47,14.47t-16.14,4.62H270.69V11.62h19q10.31,0,16.2,4.18t5.89,12.1a17.25,17.25,0,0,1-2,8.49A15.51,15.51,0,0,1,304,42.24,20.47,20.47,0,0,1,312,48.44ZM283.45,38.1h7.74A7,7,0,0,0,296.65,36a7.68,7.68,0,0,0,1.93-5.33,5.92,5.92,0,0,0-2.2-5,9.67,9.67,0,0,0-6.07-1.71h-6.86Zm15.44,24.6a6,6,0,0,0,2.77-5.41q0-6.87-10.91-6.87h-7.3V64.5h8.18A13.15,13.15,0,0,0,298.89,62.7Z" transform="translate(-8.36 -8.98)"/><path class="a" d="M340.91,58.34a14.11,14.11,0,0,0,4.93,4.58,13.1,13.1,0,0,0,6.6,1.76,14.1,14.1,0,0,0,6.95-1.76,13.58,13.58,0,0,0,5-4.58,10.76,10.76,0,0,0,1.8-5.89V11.62h12.59V52.71a23.07,23.07,0,0,1-3.52,12.54A24.19,24.19,0,0,1,365.68,74a29.48,29.48,0,0,1-26.44,0,23.88,23.88,0,0,1-9.46-8.71,23.21,23.21,0,0,1-3.48-12.54V11.62h12.76V52.45A10.58,10.58,0,0,0,340.91,58.34Z" transform="translate(-8.36 -8.98)"/><path class="a" d="M414,22.62a11.07,11.07,0,0,0-6.56,1.67,5.74,5.74,0,0,0-2.33,5c0,2.06,1.13,3.86,3.39,5.42a42.27,42.27,0,0,0,9,4.44A37.09,37.09,0,0,1,425.39,43a17.21,17.21,0,0,1,5.41,5.94A19.14,19.14,0,0,1,433,58.52a17.53,17.53,0,0,1-2.6,9.28,18.09,18.09,0,0,1-7.61,6.78,26.56,26.56,0,0,1-12,2.51,39.73,39.73,0,0,1-11.53-1.72,36.17,36.17,0,0,1-10.65-5.23l5.64-10a30.71,30.71,0,0,0,7.65,4,22.69,22.69,0,0,0,7.75,1.58,14,14,0,0,0,7-1.71,6,6,0,0,0,3-5.59q0-5-9.42-8.71A85.78,85.78,0,0,1,401,45.58a19.06,19.06,0,0,1-6.38-5.8A16,16,0,0,1,392,30.27q0-8.35,5.5-13.46t14.65-5.55a38.46,38.46,0,0,1,12.06,1.63,41.65,41.65,0,0,1,9.41,4.62l-4.84,9.77Q420.29,22.62,414,22.62Z" transform="translate(-8.36 -8.98)"/><path class="b" d="M71.44,141.5a23.73,23.73,0,0,1-6.43.92,22,22,0,0,1-8.53-1.8,17.43,17.43,0,0,1-7.31-5.81,16.25,16.25,0,0,1-3-10,21.1,21.1,0,0,1,2.46-9.9,20.47,20.47,0,0,1,7-7.7,19.21,19.21,0,0,1,10.74-3q9.06,0,14.7,5.46l-4.76,5.1a13.73,13.73,0,0,0-4.09-2.64A13.23,13.23,0,0,0,67,111.09a12,12,0,0,0-6.16,1.72,12.55,12.55,0,0,0-4.62,4.75,13.4,13.4,0,0,0-1.72,6.73,10.85,10.85,0,0,0,3.35,8.1,11.84,11.84,0,0,0,8.62,3.26,13.39,13.39,0,0,0,7.3-2.12L77.24,139A22.64,22.64,0,0,1,71.44,141.5Z" transform="translate(-8.36 -8.98)"/><path class="b" d="M104.26,140.27a17.74,17.74,0,0,1-7.3-6.16,16.72,16.72,0,0,1-2.82-9.73,23.07,23.07,0,0,1,2.2-9.72,18.72,18.72,0,0,1,7-7.92,21.39,21.39,0,0,1,12-3.13,21.13,21.13,0,0,1,9.42,2.16,17.59,17.59,0,0,1,7.08,6.25,16.85,16.85,0,0,1,2.68,9.46,23.71,23.71,0,0,1-2.06,9.37A19.32,19.32,0,0,1,125.6,139q-4.71,3.34-12.1,3.34A22,22,0,0,1,104.26,140.27Zm16.41-6.87a12.41,12.41,0,0,0,4.09-5.15,15.9,15.9,0,0,0,1.32-6.33,11.68,11.68,0,0,0-1.67-6.47,10.25,10.25,0,0,0-4.27-3.83,12.1,12.1,0,0,0-5.23-1.23,11.23,11.23,0,0,0-6.91,2.07,12.76,12.76,0,0,0-4.14,5.19A15.78,15.78,0,0,0,102.5,124a11.54,11.54,0,0,0,1.63,6.34,10.33,10.33,0,0,0,4.22,3.82,12,12,0,0,0,5.41,1.28A11.23,11.23,0,0,0,120.67,133.4Z" transform="translate(-8.36 -8.98)"/><path class="b" d="M185.53,106.25a8.91,8.91,0,0,1,2.95,7,7.23,7.23,0,0,1-.09,1.32l-3.26,26.92h-8.27l3-24.11a5.61,5.61,0,0,0-6.25-6.69,11.09,11.09,0,0,0-8.4,3.88,17,17,0,0,0-4.27,9.85l-2.11,17.07h-8.18L155,105h7.39l-.09,6.07a18.5,18.5,0,0,1,6.51-5.45,19,19,0,0,1,8.8-2A11.38,11.38,0,0,1,185.53,106.25Z" transform="translate(-8.36 -8.98)"/><path class="b" d="M241.67,106.25a8.91,8.91,0,0,1,3,7,7.23,7.23,0,0,1-.09,1.32l-3.26,26.92H233l3-24.11a5.61,5.61,0,0,0-6.24-6.69,11.1,11.1,0,0,0-8.41,3.88,17.08,17.08,0,0,0-4.27,9.85L215,141.45h-8.18l4.4-36.43h7.39l-.09,6.07a18.5,18.5,0,0,1,6.51-5.45,19.07,19.07,0,0,1,8.8-2A11.38,11.38,0,0,1,241.67,106.25Z" transform="translate(-8.36 -8.98)"/><path class="b" d="M290,132.57l3.07,6.33a25.08,25.08,0,0,1-5.85,2.47,22.73,22.73,0,0,1-6.11.88q-8.72,0-13.95-4.89T262,123.77a20.65,20.65,0,0,1,2.42-9.6,19.42,19.42,0,0,1,7.22-7.61,21.38,21.38,0,0,1,11.4-3,18.25,18.25,0,0,1,12,4q4.85,4,6.25,12.94l-29.83,8.36a10.56,10.56,0,0,0,4.36,4.8,12.51,12.51,0,0,0,6.29,1.62A14.27,14.27,0,0,0,290,132.57Zm-13.95-20.68a11.87,11.87,0,0,0-4.4,4.66,13.3,13.3,0,0,0-1.54,6.34v.88l22.09-6.25a10.35,10.35,0,0,0-3.52-5.37,9.37,9.37,0,0,0-6-2A12.34,12.34,0,0,0,276.08,111.89Z" transform="translate(-8.36 -8.98)"/><path class="b" d="M340.45,141.5a23.67,23.67,0,0,1-6.43.92,22,22,0,0,1-8.53-1.8,17.43,17.43,0,0,1-7.31-5.81,16.25,16.25,0,0,1-3-10,21,21,0,0,1,2.47-9.9,20.31,20.31,0,0,1,7-7.7,19.18,19.18,0,0,1,10.73-3q9.06,0,14.7,5.46l-4.75,5.1a13.92,13.92,0,0,0-4.1-2.64,13.19,13.19,0,0,0-5.32-1.06,12,12,0,0,0-6.16,1.72,12.55,12.55,0,0,0-4.62,4.75,13.51,13.51,0,0,0-1.72,6.73,10.85,10.85,0,0,0,3.35,8.1,11.84,11.84,0,0,0,8.62,3.26,13.43,13.43,0,0,0,7.31-2.12l3.52,5.46A22.86,22.86,0,0,1,340.45,141.5Z" transform="translate(-8.36 -8.98)"/><path class="b" d="M382.16,89l-2,16.1h10l-.79,6.51h-10l-3.6,29.83h-8.19l3.61-29.83h-6.69l.79-6.51H372L373.89,89Z" transform="translate(-8.36 -8.98)"/></svg>